<svg width="147" height="147" viewBox="0 0 147 147" fill="none" xmlns="http://www.w3.org/2000/svg">
<circle cx="73.43" cy="73.43" r="73.43" fill="white"/>
<path d="M31.287 60.027H31.139C30.798 59.8664 30.441 59.742 30.074 59.656C29.6687 59.5451 29.2511 59.485 28.831 59.4771C28.3505 59.4315 27.8664 59.512 27.4264 59.7104C26.9865 59.9089 26.6058 60.2186 26.322 60.609C25.7143 61.8833 25.4565 63.2963 25.575 64.703V65.5031H30.175V68.803H25.662V89.1371H22.88V68.808H21V65.5081H22.88V64.725C22.7381 62.4666 23.2354 60.2138 24.315 58.225C24.7405 57.5216 25.3462 56.9447 26.0695 56.554C26.7929 56.1634 27.6074 55.9732 28.429 56.0031C28.9343 56.0025 29.4388 56.0416 29.938 56.1201C30.432 56.1971 30.88 56.286 31.285 56.384L31.287 60.027Z" fill="#1A1818"/>
<path d="M40.8469 65.6394H40.6989C40.4838 65.5791 40.2629 65.5419 40.0399 65.5284C39.8079 65.5131 39.5292 65.5057 39.2039 65.5064C38.433 65.5111 37.6716 65.6773 36.9689 65.9944C36.188 66.3486 35.4768 66.8396 34.8689 67.4444V79.1794H32.0869V62.6504H34.8689V65.1064C35.6691 64.3619 36.5618 63.7233 37.5249 63.2064C38.2058 62.8546 38.9587 62.6647 39.7249 62.6514C40.0109 62.6514 40.2249 62.6584 40.3689 62.6734C40.5129 62.6884 40.6689 62.7104 40.8499 62.7394L40.8469 65.6394Z" fill="#1A1818"/>
<path d="M51.7232 77.4199C51.4965 77.5879 51.1932 77.8213 50.8132 78.1199C50.4719 78.3961 50.1033 78.6366 49.7132 78.8379C49.2563 79.0784 48.7783 79.2766 48.2852 79.4299C47.6542 79.588 47.0043 79.6577 46.3542 79.6369C45.6948 79.639 45.0414 79.5107 44.4318 79.2592C43.8222 79.0078 43.2684 78.6383 42.8022 78.1719C42.3392 77.6882 41.9772 77.1171 41.7372 76.4919C41.4257 75.6795 41.2934 74.8092 41.3495 73.9409C41.4056 73.0725 41.6487 72.2266 42.0622 71.4609C42.6109 70.6009 43.4122 69.9316 44.3562 69.5449C45.401 69.0886 46.5083 68.7917 47.6412 68.6639C48.9045 68.5013 50.2659 68.3806 51.7252 68.3019V67.7689C51.7457 67.2277 51.6431 66.6888 51.4252 66.1929C51.2443 65.8108 50.9563 65.4895 50.5962 65.2679C50.2002 65.0262 49.7568 64.8724 49.2962 64.8169C48.7719 64.7421 48.2428 64.7051 47.7132 64.7059C46.9504 64.7208 46.1914 64.8173 45.4492 64.9939C44.5575 65.1936 43.6856 65.4734 42.8442 65.8299H42.6822V63.0069C43.1942 62.8589 43.9275 62.6959 44.8822 62.5179C45.8194 62.3426 46.7707 62.2536 47.7242 62.2519C48.6877 62.2355 49.6501 62.3247 50.5942 62.5179C51.354 62.6876 52.0695 63.0153 52.6942 63.4799C53.2952 63.9333 53.761 64.5422 54.0412 65.2409C54.3576 66.0821 54.508 66.9766 54.4842 67.8749V79.1809H51.7232V77.4199ZM51.7232 75.1119V70.5239C51.0619 70.5826 50.2259 70.6639 49.2152 70.7679C48.3872 70.8384 47.5674 70.9847 46.7662 71.2049C46.08 71.4011 45.4508 71.7588 44.9312 72.2479C44.6812 72.5068 44.4877 72.8148 44.3629 73.1523C44.2381 73.4899 44.1847 73.8497 44.2062 74.2089C44.1776 74.6031 44.2343 74.9988 44.3724 75.3691C44.5104 75.7394 44.7266 76.0756 45.0062 76.3549C45.6671 76.881 46.5015 77.1397 47.3442 77.0799C48.1733 77.0917 48.9922 76.8958 49.7262 76.5099C50.4447 76.1244 51.115 75.6551 51.7232 75.1119Z" fill="#1A1818"/>
<path d="M71.3903 79.1798H68.6133V69.7688C68.616 69.0593 68.5789 68.3502 68.5023 67.6448C68.4584 67.0982 68.3154 66.5642 68.0803 66.0688C67.8685 65.6695 67.5375 65.3462 67.1333 65.1438C66.6108 64.9197 66.0442 64.8172 65.4763 64.8438C64.7296 64.8579 63.9967 65.0481 63.3373 65.3988C62.5657 65.7936 61.8431 66.2776 61.1843 66.8408V79.1828H58.4023V62.6508H61.1843V64.4858C61.9216 63.8093 62.7483 63.2373 63.6413 62.7858C64.4376 62.3937 65.3138 62.1911 66.2013 62.1938C66.9163 62.157 67.6304 62.2819 68.2904 62.5593C68.9504 62.8366 69.5393 63.2593 70.0133 63.7958C71.0154 65.1319 71.5037 66.7837 71.3893 68.4498L71.3903 79.1798Z" fill="#1A1818"/>
<path d="M88.9999 79.1803H85.344L79.174 71.2043L78.074 72.2693V79.1803H75.292V56.1543H78.074V69.6353L84.615 62.6513H88.0779L81.2859 69.5613L88.9999 79.1803Z" fill="#1A1818"/>
<path d="M93.4238 59.8831H90.2568V56.9961H93.4238V59.8831ZM93.2308 79.1831H90.4498V62.6511H93.2308V79.1831Z" fill="#1A1818"/>
<path d="M104.493 79.5648C103.373 79.6332 102.25 79.4708 101.195 79.0877C100.14 78.7047 99.1747 78.109 98.3591 77.3378C97.5939 76.4808 97.0068 75.4801 96.632 74.3941C96.2573 73.308 96.1023 72.1583 96.1761 71.0118C96.0535 68.6792 96.8087 66.3852 98.2931 64.5817C98.981 63.7984 99.8343 63.1777 100.791 62.7644C101.748 62.3511 102.785 62.1555 103.827 62.1918C104.754 62.1752 105.676 62.3256 106.55 62.6358C107.339 62.9319 108.049 63.4082 108.621 64.0268C109.234 64.6934 109.699 65.4829 109.983 66.3428C110.324 67.4262 110.483 68.5584 110.456 69.6937V71.2038H99.0031C98.8923 72.8067 99.4127 74.3894 100.453 75.6138C100.977 76.1347 101.605 76.5396 102.296 76.8021C102.987 77.0647 103.725 77.179 104.463 77.1377C105.069 77.1387 105.673 77.0692 106.263 76.9307C106.81 76.8061 107.343 76.6276 107.854 76.3978C108.292 76.205 108.717 75.9849 109.127 75.7388C109.427 75.5591 109.714 75.3586 109.985 75.1388H110.148V78.1728C109.822 78.3008 109.418 78.4611 108.935 78.6538C108.51 78.8262 108.076 78.9767 107.635 79.1048C107.092 79.2528 106.602 79.3661 106.163 79.4448C105.611 79.533 105.052 79.5731 104.493 79.5648V79.5648ZM107.748 69.0728C107.742 68.4178 107.652 67.7662 107.482 67.1337C107.346 66.6353 107.115 66.168 106.801 65.7578C106.472 65.3406 106.042 65.0146 105.551 64.8108C104.33 64.3747 102.996 64.3775 101.777 64.8187C101.248 65.0483 100.769 65.3773 100.364 65.7878C99.9608 66.2052 99.6396 66.6947 99.4171 67.2308C99.186 67.8201 99.0464 68.4413 99.0031 69.0728H107.748Z" fill="#1A1818"/>
<path d="M117.737 79.5797C116.687 79.5877 115.642 79.438 114.637 79.1357C113.813 78.8948 113.013 78.5778 112.247 78.1887V75.0657H112.395C112.632 75.2537 112.91 75.4611 113.231 75.6877C113.636 75.9622 114.064 76.1998 114.511 76.3977C115.017 76.6267 115.539 76.8195 116.072 76.9747C116.646 77.1437 117.242 77.2286 117.84 77.2267C118.318 77.2231 118.794 77.1708 119.261 77.0707C119.656 77.0066 120.037 76.874 120.386 76.6787C120.686 76.4962 120.942 76.2484 121.133 75.9537C121.308 75.5954 121.387 75.1977 121.362 74.7997C121.382 74.5266 121.345 74.2522 121.252 73.9946C121.159 73.737 121.012 73.5019 120.822 73.3047C120.26 72.8754 119.603 72.5864 118.906 72.4617C118.551 72.373 118.088 72.2694 117.515 72.1507C116.942 72.032 116.415 71.9037 115.932 71.7657C114.854 71.5181 113.886 70.9229 113.179 70.0717C112.499 69.0893 112.208 67.8898 112.361 66.7049C112.514 65.5201 113.101 64.434 114.008 63.6567C115.287 62.6683 116.878 62.1697 118.492 62.2507C119.425 62.2528 120.354 62.3673 121.259 62.5917C122.072 62.7762 122.858 63.0645 123.597 63.4497V66.4237H123.449C122.732 65.8579 121.931 65.4084 121.074 65.0917C120.23 64.7719 119.335 64.6066 118.432 64.6037C117.619 64.5768 116.815 64.7766 116.109 65.1807C115.806 65.3569 115.558 65.613 115.391 65.9209C115.224 66.2289 115.145 66.5768 115.162 66.9267C115.14 67.2098 115.178 67.4945 115.276 67.7614C115.373 68.0283 115.526 68.2712 115.725 68.4737C116.252 68.8879 116.868 69.174 117.525 69.3097C117.939 69.4187 118.4 69.5237 118.908 69.6277C119.416 69.7317 119.952 69.8517 120.514 69.9897C121.57 70.2007 122.534 70.7334 123.274 71.5147C123.928 72.3352 124.257 73.3673 124.199 74.4147C124.202 75.1102 124.058 75.7986 123.777 76.4347C123.498 77.0686 123.075 77.6285 122.541 78.0697C121.949 78.5642 121.271 78.9458 120.541 79.1957C119.634 79.4753 118.686 79.6051 117.737 79.5797Z" fill="#1A1818"/>
</svg>
